<?xml version="1.0" encoding="UTF-8"?>
<!DOCTYPE svg PUBLIC "-//W3C//DTD SVG 1.1//EN" "http://www.w3.org/Graphics/SVG/1.1/DTD/svg11.dtd">
<!-- Creator: CorelDRAW 2021.5 -->
<svg xmlns="http://www.w3.org/2000/svg" xml:space="preserve" width="61.0528mm" height="58.9308mm" version="1.1" style="shape-rendering:geometricPrecision; text-rendering:geometricPrecision; image-rendering:optimizeQuality; fill-rule:evenodd; clip-rule:evenodd"
viewBox="0 0 6101.28 5889.22"
 xmlns:xlink="http://www.w3.org/1999/xlink"
 xmlns:xodm="http://www.corel.com/coreldraw/odm/2003">
 <defs>
  <style type="text/css">
   <![CDATA[
    .fil0 {fill:#114954;fill-rule:nonzero}
   ]]>
  </style>
 </defs>
 <g id="Layer_x0020_1">
  <metadata id="CorelCorpID_0Corel-Layer"/>
  <g id="_2715078207056">
   <path class="fil0" d="M844.5 4742.09l0 182.2 -326.4 0 0 942.73 -191.7 0 0 -942.73 -326.4 0 0 -182.2 844.5 0zm994.64 947.48l0 177.45 -790.63 0 0 -1124.93 790.63 0 0 177.45 -598.92 0 0 288.35 571.98 0 0 177.46 -571.98 0 0 304.21 598.92 0zm215.09 -386.61c0,-172.17 52.56,-312.65 157.65,-421.44 105.11,-108.8 240.05,-163.2 404.82,-163.2 140.49,0 259.85,39.08 358.08,117.25 98.24,78.16 158.98,183.78 182.21,316.87l-204.39 0c-19.01,-78.16 -58.36,-139.42 -118.03,-183.78 -59.68,-44.37 -132.31,-66.55 -217.87,-66.55 -111.96,0 -199.91,36.18 -263.8,108.53 -63.91,72.35 -95.87,169.8 -95.87,292.32 0,122.53 31.96,220.24 95.87,293.13 63.89,72.88 151.84,109.32 263.8,109.32 85.55,0 158.19,-22.19 217.87,-66.55 59.67,-44.35 99.03,-105.62 118.03,-183.79l204.39 0c-23.23,133.09 -83.97,238.72 -182.21,316.88 -98.23,78.16 -217.59,117.25 -358.08,117.25 -164.77,0 -299.71,-54.39 -404.82,-163.19 -105.09,-108.8 -157.65,-249.82 -157.65,-423.05zm2273.27 -560.87l0 1124.93 -191.71 0 0 -481.66 -533.94 0 0 481.66 -191.71 0 0 -1124.93 191.71 0 0 465.8 533.94 0 0 -465.8 191.71 0zm517.73 0l0 1124.93 -191.72 0 0 -1124.93 191.72 0zm514.54 317.67l0 807.26 -188.55 0 0 -1124.93 191.98 0 549.53 813.86 0 -813.86 188.55 0 0 1124.93 -196.46 0 -545.05 -807.26z"/>
   <g>
    <path class="fil0" d="M152.46 828.07l2636.63 0 0 2789.1 -2789.09 0 0 -2789.1 152.46 0zm2331.72 304.92l-2179.27 0 0 2179.26 2179.27 0 0 -2179.26z"/>
    <path class="fil0" d="M3464.64 828.07l2636.64 0 0 2789.1 -2789.09 0 0 -2789.1 152.45 0zm2331.73 304.92l-2179.27 0 0 2179.26 2179.27 0 0 -2179.26z"/>
    <path class="fil0" d="M1808.57 0l2636.6 0 0 2789.09 -2789.05 0 0 -2789.09 152.45 0zm2331.69 304.91l-2179.23 0 0 2179.27 2179.23 0 0 -2179.27z"/>
   </g>
  </g>
 </g>
</svg>
